<?xml version="1.0" encoding="UTF-8"?>
<!DOCTYPE svg PUBLIC "-//W3C//DTD SVG 1.1//EN" "http://www.w3.org/Graphics/SVG/1.1/DTD/svg11.dtd">
<!-- Creator: CorelDRAW X6 -->
<svg xmlns="http://www.w3.org/2000/svg" xml:space="preserve" width="988px" height="76px" version="1.1" style="shape-rendering:geometricPrecision; text-rendering:geometricPrecision; image-rendering:optimizeQuality; fill-rule:evenodd; clip-rule:evenodd"
viewBox="0 0 988 76"
 xmlns:xlink="http://www.w3.org/1999/xlink">
 <defs>
  <style type="text/css">
   <![CDATA[
    .fil0 {fill:white;fill-rule:nonzero}
   ]]>
  </style>
 </defs>
 <g id="saba">
  <metadata id="CorelCorpID_0Corel-Layer"/>
  <path class="fil0" d="M28 76c-6,0 -12,-2 -17,-5 -5,-3 -9,-7 -11,-13l9 -4c4,9 11,13 21,13 5,0 9,-1 12,-3 3,-2 4,-5 4,-9 0,-2 -1,-4 -3,-6 -2,-2 -5,-3 -9,-5l-14 -5c-6,-2 -10,-5 -13,-8 -3,-3 -4,-7 -4,-12 0,-4 1,-8 3,-11 2,-3 5,-5 9,-7 4,-2 8,-2 13,-2 6,0 11,1 16,3 4,2 8,5 10,10l-8 5c-2,-3 -4,-6 -7,-7 -3,-2 -7,-2 -10,-2 -4,0 -8,1 -11,3 -3,2 -4,5 -4,8 0,3 1,5 2,7 1,2 4,3 9,5l16 5c5,2 9,4 12,8 3,3 4,7 4,11 0,4 -1,8 -3,11 -2,3 -5,6 -9,8 -4,2 -8,3 -14,3 0,0 -1,0 -1,0zm62 -22l-8 21 -11 0 30 -74 10 0 30 74 -11 0 -8 -21 -33 0zm16 -42l-13 33 26 0 -13 -33zm85 -12c8,0 13,2 18,5 5,3 7,8 7,14 0,4 -1,8 -4,11 -2,3 -6,5 -10,6 6,1 11,3 14,6 3,3 5,7 5,12 0,6 -2,11 -7,15 -5,4 -11,6 -19,6l-34 0 0 -74 0 0 30 0zm0 32c4,0 8,-1 11,-3 3,-2 4,-5 4,-9 0,-3 -1,-6 -4,-8 -3,-2 -6,-3 -11,-3l-20 0 0 23 20 0zm4 34c4,0 7,-1 10,-3 3,-2 4,-5 4,-9 0,-4 -1,-7 -4,-9 -3,-2 -7,-3 -11,-3l-23 0 0 25 25 0 0 0zm62 -12l-8 21 -11 0 30 -74 10 0 30 74 -11 0 -8 -21 -33 0zm16 -42l-13 33 26 0 -13 -33zm113 64c-5,0 -9,-1 -13,-3 -4,-2 -7,-5 -9,-8l7 -5c2,3 4,4 6,6 2,1 5,2 8,2 4,0 6,-1 8,-3 2,-2 3,-5 3,-9l0 -55 10 0 0 55c0,6 -2,11 -6,15 -4,3 -9,5 -16,5l0 0zm56 -22l-8 21 -11 0 30 -74 10 0 30 74 -11 0 -8 -21 -33 0zm16 -42l-13 33 26 0 -13 -33zm120 62l-9 0 -45 -59 0 59 -10 0 0 -74 9 0 45 58 0 -58 10 0 0 74zm45 1c-5,0 -9,-1 -13,-3 -4,-2 -7,-5 -9,-8l7 -5c2,3 4,4 6,6 2,1 5,2 8,2 4,0 6,-1 8,-3 2,-2 3,-5 3,-9l0 -55 10 0 0 55c0,6 -2,11 -6,15 -4,3 -9,5 -16,5l0 0zm83 0c-8,0 -15,-2 -21,-5 -7,-3 -12,-8 -15,-14 -4,-6 -5,-12 -5,-20 0,-7 2,-14 5,-20 3,-6 8,-10 14,-14 6,-3 13,-5 21,-5 7,0 13,1 19,4 6,3 10,6 12,11l-8 5c-3,-3 -6,-6 -10,-8 -4,-2 -9,-3 -14,-3 -6,0 -11,1 -15,4 -5,2 -8,6 -11,10 -3,5 -4,10 -4,16 0,6 1,11 4,16 3,5 7,8 12,10 5,2 10,4 17,4 4,0 8,-1 13,-2 4,-1 7,-3 9,-5l0 -16 -21 0 0 -9 31 0 0 28c-3,4 -8,7 -13,9 -5,2 -11,3 -18,3 0,0 -1,0 -1,0zm68 -22l-8 21 -11 0 30 -74 10 0 30 74 -11 0 -8 -21 -33 0zm16 -42l-13 33 26 0 -13 -33zm87 62l-11 0 -29 -74 11 0 23 62 23 -62 11 0 -29 74zm59 -21l-8 21 -11 0 30 -74 10 0 30 74 -11 0 -8 -21 -33 0zm16 -42l-13 33 26 0 -13 -33z"/>
 </g>
</svg>
