<?xml version="1.0" encoding="UTF-8"?>
<!DOCTYPE svg PUBLIC "-//W3C//DTD SVG 1.1//EN" "http://www.w3.org/Graphics/SVG/1.1/DTD/svg11.dtd">
<!-- Creator: CorelDRAW X6 -->
<?xml-stylesheet href="Saba-sub.css" type="text/css"?>
<svg xmlns="http://www.w3.org/2000/svg" xml:space="preserve" width="1000px" height="200px" version="1.1" style="shape-rendering:geometricPrecision; text-rendering:geometricPrecision; image-rendering:optimizeQuality; fill-rule:evenodd; clip-rule:evenodd"
viewBox="0 0 1000 200"
 xmlns:xlink="http://www.w3.org/1999/xlink">
 <g id="saba-sub">
  <metadata id="CorelCorpID_0Corel-Layer"/>
  <path class="fil0" d="M43 119l-34 0 0 -54 7 0 0 47 27 0 0 6zm26 -5c2,0 4,0 6,-1 2,-1 4,-2 5,-4 1,-2 2,-4 2,-6l0 -2 -11 0c-3,0 -5,0 -7,1 -2,1 -3,2 -3,5 0,2 1,4 2,5 2,1 4,2 6,2l0 0zm-1 5c-4,0 -8,-1 -10,-3 -3,-2 -4,-5 -4,-8 0,-4 2,-7 5,-9 3,-2 7,-3 12,-3l12 0 0 -3c0,-3 -1,-5 -3,-6 -2,-1 -4,-2 -7,-2 -2,0 -5,1 -7,2 -2,1 -4,2 -5,4l-5 -4c2,-2 4,-4 7,-6 3,-1 6,-2 10,-2 5,0 9,1 12,4 3,3 4,6 4,10l0 18c0,1 0,1 0,1 0,0 1,0 2,0l2 0 0 5 -4 0c-2,0 -3,0 -4,-1 -1,-1 -2,-2 -2,-4l0 0c-2,2 -3,4 -6,5 -2,1 -5,2 -8,2zm91 -54c5,0 10,1 13,4 3,3 5,6 5,10 0,3 -1,6 -3,8 -2,2 -4,4 -7,4 4,1 8,2 10,4 2,2 3,5 3,9 0,5 -2,8 -5,11 -3,3 -8,4 -14,4l-25 0 0 -54 0 0 22 0zm0 23c3,0 6,-1 8,-2 2,-1 3,-4 3,-6 0,-3 -1,-5 -3,-6 -2,-2 -5,-2 -8,-2l-14 0 0 17 15 0zm3 24c3,0 5,-1 7,-3 2,-2 3,-4 3,-7 0,-3 -1,-5 -3,-7 -2,-2 -5,-2 -8,-2l-17 0 0 18 18 0 0 0zm51 7c-4,0 -8,-1 -11,-3 -3,-2 -6,-4 -8,-7 -2,-3 -3,-6 -3,-10 0,-4 1,-7 3,-10 2,-3 4,-5 7,-7 3,-2 7,-3 11,-3 4,0 8,1 11,3 3,2 6,4 8,7 2,3 3,6 3,10 0,4 -1,7 -3,10 -2,3 -4,6 -8,7 -3,2 -7,3 -11,3 0,0 0,0 0,0zm0 -6c3,0 5,-1 8,-2 2,-1 4,-3 5,-5 1,-2 2,-4 2,-7 0,-2 -1,-5 -2,-7 -1,-2 -3,-4 -5,-5 -2,-1 -5,-2 -8,-2 -3,0 -5,1 -8,2 -2,1 -4,3 -5,5 -1,2 -2,4 -2,7 0,3 1,5 2,7 1,2 3,4 5,5 2,1 5,2 7,2 0,0 0,0 0,0zm50 6c-3,0 -6,-1 -9,-2 -3,-1 -5,-3 -6,-5 -1,-2 -2,-5 -2,-8l0 -24 7 0 0 24c0,3 1,5 3,7 2,2 4,3 7,3 3,0 5,-1 7,-3 2,-2 3,-4 3,-7l0 -24 7 0 0 24c0,3 -1,6 -2,8 -1,2 -3,4 -6,5 -2,1 -5,2 -8,2 0,0 0,0 -1,0zm45 -1c-4,0 -7,-1 -8,-3 -2,-2 -3,-4 -3,-7l0 -23 -8 0 0 -6 8 0 0 -11 7 0 0 11 11 0 0 6 -11 0 0 22c0,3 2,5 5,5l6 0 0 6 -7 0zm21 -46c-1,0 -2,0 -3,-1 -1,-1 -1,-2 -1,-3 0,-1 0,-2 1,-3 1,-1 2,-1 3,-1 1,0 3,0 3,1 1,1 1,2 1,3 0,1 0,2 -1,3 -1,1 -2,1 -3,1zm4 8l0 38 -7 0 0 -38 7 0zm47 31c-1,2 -3,4 -6,6 -3,1 -5,2 -8,2 -4,0 -7,-1 -10,-3 -3,-2 -5,-4 -7,-7 -2,-3 -3,-6 -3,-10 0,-4 1,-7 3,-10 2,-3 4,-5 7,-7 3,-2 6,-3 10,-3 3,0 6,1 8,2 3,1 5,3 6,6l0 -7 7 0 0 55 -7 0 0 0 0 -23zm-13 2c3,0 5,-1 7,-2 2,-1 4,-3 5,-5 1,-2 2,-5 2,-7 0,-3 -1,-5 -2,-7 -1,-2 -3,-4 -5,-5 -2,-1 -4,-2 -7,-2 -4,0 -7,1 -9,4 -2,3 -4,6 -4,10 0,3 1,5 2,7 1,2 3,4 5,5 2,1 4,2 7,2l0 0zm50 6c-3,0 -6,-1 -9,-2 -3,-1 -5,-3 -6,-5 -1,-2 -2,-5 -2,-8l0 -24 7 0 0 24c0,3 1,5 3,7 2,2 4,3 7,3 3,0 6,-1 7,-3 2,-2 3,-4 3,-7l0 -24 7 0 0 24c0,3 -1,6 -2,8 -1,2 -3,4 -6,5 -2,1 -5,2 -8,2 0,0 0,0 -1,0zm68 -21c0,1 0,2 0,3l-33 0c0,3 2,6 4,9 2,2 6,3 10,3 3,0 5,-1 7,-2 2,-1 4,-3 6,-5l5 3c-2,3 -4,5 -7,7 -3,2 -7,2 -11,2 -4,0 -8,-1 -11,-3 -3,-2 -6,-4 -8,-7 -2,-3 -3,-6 -3,-10 0,-4 1,-7 2,-10 2,-3 4,-5 7,-7 3,-2 7,-3 11,-3 4,0 8,1 11,3 3,2 5,4 7,7 2,3 2,6 2,9l0 0zm-8 -2c0,-3 -1,-5 -4,-8 -2,-2 -5,-3 -9,-3 -4,0 -7,1 -9,3 -2,2 -4,5 -4,8l26 0 0 0 0 0zm70 23c-3,0 -7,-1 -10,-3 -3,-2 -5,-4 -7,-7 -2,-3 -3,-6 -3,-10 0,-4 1,-7 3,-10 2,-3 4,-5 7,-7 3,-2 6,-3 10,-3 3,0 6,1 9,2 3,1 5,3 6,6l0 -24 7 0 0 55 -7 0 0 -7c-1,2 -3,4 -6,6 -2,1 -5,2 -9,2 0,0 0,0 0,0zm1 -6c3,0 6,-1 8,-2 2,-1 4,-3 5,-5 1,-2 2,-5 2,-7 0,-3 -1,-5 -2,-7 -1,-2 -3,-4 -5,-5 -2,-1 -4,-2 -7,-2 -2,0 -5,1 -7,2 -2,1 -4,3 -5,5 -1,2 -2,5 -2,7 0,4 1,8 4,10 2,3 5,4 8,4l0 0zm51 6c-3,0 -6,-1 -9,-2 -3,-1 -5,-3 -6,-5 -1,-2 -2,-5 -2,-8l0 -24 7 0 0 24c0,3 1,5 3,7 2,2 4,3 7,3 3,0 5,-1 7,-3 2,-2 3,-4 3,-7l0 -24 7 0 0 24c0,3 -1,6 -2,8 -1,2 -3,4 -6,5 -2,1 -5,2 -8,2 0,0 0,0 -1,0zm85 -55c3,0 6,1 9,2 3,1 5,3 7,5 2,2 2,5 2,9 0,3 -1,6 -2,9 -2,2 -4,4 -7,5 -3,1 -6,2 -9,2l-15 0 0 23 -7 0 0 -54 23 0zm-1 25c3,0 6,-1 8,-2 2,-1 3,-4 3,-7 0,-3 -1,-6 -3,-7 -2,-2 -5,-2 -8,-2l-15 0 0 19 15 0zm94 29c-4,0 -7,-1 -8,-3 -2,-2 -3,-4 -3,-7l0 -23 -8 0 0 -6 8 0 0 -11 7 0 0 11 11 0 0 6 -11 0 0 22c0,3 2,5 5,5l6 0 0 6 -7 0zm21 -46c-1,0 -2,0 -3,-1 -1,-1 -1,-2 -1,-3 0,-1 0,-2 1,-3 1,-1 2,-1 3,-1 1,0 3,0 3,1 1,1 1,2 1,3 0,1 0,2 -1,3 -1,1 -2,1 -3,1zm4 8l0 38 -7 0 0 -38 7 0zm30 39c-4,0 -8,-1 -11,-2 -3,-1 -6,-3 -8,-6l5 -3c2,2 3,4 6,5 2,1 5,2 8,2 2,0 4,0 6,-1 2,-1 3,-2 3,-4 0,-1 -1,-2 -2,-3 -1,-1 -3,-1 -5,-2l-6 -1c-4,-1 -7,-2 -9,-4 -2,-2 -3,-4 -3,-7 0,-2 1,-4 2,-6 1,-2 3,-3 6,-4 2,-1 5,-1 8,-1 4,0 7,1 10,2 3,1 5,2 6,5l-4 4c-3,-3 -7,-4 -12,-4 -2,0 -4,0 -6,1 -1,1 -2,2 -2,4 0,1 1,3 2,3 1,1 3,1 6,2l7 2c4,1 7,2 9,4 2,2 3,4 3,7 0,4 -2,6 -5,8 -3,2 -6,3 -10,3 0,0 -1,0 -1,0zm42 0c-4,0 -8,-1 -11,-2 -3,-1 -6,-3 -8,-6l5 -3c2,2 3,4 6,5 2,1 5,2 7,2 2,0 4,0 6,-1 2,-1 3,-2 3,-4 0,-1 -1,-2 -2,-3 -1,-1 -3,-1 -5,-2l-6 -1c-4,-1 -7,-2 -9,-4 -2,-2 -3,-4 -3,-7 0,-2 1,-4 2,-6 1,-2 3,-3 6,-4 2,-1 5,-1 8,-1 4,0 7,1 10,2 3,1 5,2 7,5l-4 4c-3,-3 -7,-4 -12,-4 -2,0 -4,0 -6,1 -2,1 -2,2 -2,4 0,1 1,3 2,3 1,1 3,1 6,2l7 2c4,1 7,2 9,4 2,2 3,4 3,7 0,4 -1,6 -5,8 -3,2 -6,3 -10,3 0,0 -1,0 -1,0zm30 -47c-1,0 -2,0 -3,-1 -1,-1 -1,-2 -1,-3 0,-1 0,-2 1,-3 1,-1 2,-1 3,-1 1,0 3,0 3,1 1,1 1,2 1,3 0,1 0,2 -1,3 -1,1 -2,1 -3,1zm4 8l0 38 -7 0 0 -38 7 0zm52 18c0,1 0,2 0,3l-33 0c0,3 2,6 4,9 2,2 6,3 10,3 3,0 5,-1 7,-2 2,-1 4,-3 6,-5l5 3c-2,3 -4,5 -8,7 -3,2 -7,2 -11,2 -4,0 -8,-1 -11,-3 -3,-2 -6,-4 -8,-7 -2,-3 -3,-6 -3,-10 0,-4 1,-7 2,-10 2,-3 4,-5 7,-7 3,-2 7,-3 11,-3 4,0 8,1 11,3 3,2 5,4 7,7 2,3 2,6 2,9l0 0zm-8 -2c0,-3 -1,-5 -4,-8 -2,-2 -5,-3 -9,-3 -4,0 -7,1 -9,3 -2,2 -4,5 -4,8l26 0 0 0 0 0zm24 -16l0 9c1,-3 2,-5 5,-7 2,-2 5,-2 8,-2 1,0 2,0 3,0l0 6 -3 0c-4,0 -7,1 -9,3 -2,2 -3,5 -3,9l0 19 -7 0 0 -38 7 0zm-248 34c2,0 4,0 6,-1 2,-1 4,-2 5,-4 1,-2 2,-4 2,-6l0 -2 -11 0c-3,0 -5,0 -7,1 -2,1 -3,2 -3,5 0,2 1,4 2,5 2,1 4,2 6,2l0 0zm-1 5c-4,0 -8,-1 -10,-3 -3,-2 -4,-5 -4,-8 0,-4 2,-7 5,-9 3,-2 7,-3 12,-3l12 0 0 -3c0,-3 -1,-5 -3,-6 -2,-1 -4,-2 -7,-2 -2,0 -5,1 -7,2 -2,1 -4,2 -5,4l-5 -4c2,-2 4,-4 7,-6 3,-1 6,-2 10,-2 5,0 9,1 12,4 3,3 4,6 4,10l0 18c0,1 0,1 0,1 0,0 1,0 2,0l2 0 0 5 -4 0c-2,0 -3,0 -4,-1 -1,-1 -2,-2 -2,-4l0 0c-2,2 -3,4 -6,5 -2,1 -5,2 -8,2z"/>
 </g>
</svg>
